<?xml version="1.0" standalone="no"?>
<!DOCTYPE svg PUBLIC "-//W3C//DTD SVG 20010904//EN"
 "http://www.w3.org/TR/2001/REC-SVG-20010904/DTD/svg10.dtd">
<svg version="1.0" xmlns="http://www.w3.org/2000/svg"
 width="512.000000pt" height="512.000000pt" viewBox="0 0 512.000000 512.000000"
 preserveAspectRatio="xMidYMid meet">

<g transform="translate(0.000000,512.000000) scale(0.100000,-0.100000)"
fill="#000000" stroke="none">
<path d="M371 4074 c-138 -37 -254 -131 -316 -257 -70 -141 -71 -294 -3 -436
29 -61 112 -147 1106 -1148 633 -638 1097 -1097 1129 -1119 91 -60 153 -78
273 -78 121 0 178 18 280 85 81 55 2174 2161 2213 2226 110 190 79 421 -78
578 -154 154 -386 189 -579 88 -38 -20 -263 -238 -911 -884 -673 -670 -867
-858 -891 -864 -18 -3 -45 -1 -63 7 -18 8 -388 369 -894 874 -801 801 -867
864 -927 892 -114 53 -231 65 -339 36z"/>
</g>
</svg>
