<!DOCTYPE svg PUBLIC "-//W3C//DTD SVG 1.1//EN" "http://www.w3.org/Graphics/SVG/1.1/DTD/svg11.dtd">
<!-- Uploaded to: SVG Repo, www.svgrepo.com, Transformed by: SVG Repo Mixer Tools -->
<svg fill="#65637b" version="1.1" id="Layer_1" xmlns="http://www.w3.org/2000/svg" xmlns:xlink="http://www.w3.org/1999/xlink" viewBox="0 0 512.004 512.004" xml:space="preserve" width="800px" height="800px">
<g id="SVGRepo_bgCarrier" stroke-width="0"/>
<g id="SVGRepo_tracerCarrier" stroke-linecap="round" stroke-linejoin="round"/>
<g id="SVGRepo_iconCarrier"> <g> <g> <path d="M232.377,359.638v144.129h272.604V359.638H232.377z M489.328,488.114H248.03V375.292h241.299V488.114z"/> </g> </g> <g> <g> <rect x="296.087" y="391.997" width="15.653" height="81.396"/> </g> </g> <g> <g> <rect x="264.781" y="391.997" width="15.653" height="81.396"/> </g> </g> <g> <g> <rect x="328.437" y="391.997" width="15.653" height="81.396"/> </g> </g> <g> <g> <rect x="360.787" y="391.997" width="15.653" height="81.396"/> </g> </g> <g> <g> <rect x="393.137" y="391.997" width="15.653" height="81.396"/> </g> </g> <g> <g> <rect x="424.443" y="391.997" width="15.653" height="81.396"/> </g> </g> <g> <g> <rect x="456.793" y="391.997" width="15.653" height="81.396"/> </g> </g> <g> <g> <polygon points="489.141,336.685 489.141,327.293 473.488,327.293 473.488,336.685 262.692,336.685 262.692,327.293 247.039,327.293 247.039,336.685 232.429,336.685 232.429,352.338 504.794,352.338 504.794,336.685 "/> </g> </g> <g> <g> <polygon points="387.554,215.634 376.438,215.634 376.438,198.937 360.785,198.937 360.785,215.634 349.832,215.634 247.039,299.511 247.039,318.944 262.692,318.944 262.692,306.943 355.408,231.287 381.924,231.287 473.488,306.913 473.488,318.944 489.141,318.944 489.141,299.541 "/> </g> </g> <g> <g> <path d="M87.639,102.688c-17.598,0-31.916,14.317-31.916,31.916c0,17.598,14.317,31.916,31.916,31.916 c17.598,0,31.916-14.317,31.916-31.916C119.555,117.005,105.238,102.688,87.639,102.688z M87.639,150.866 c-8.967,0-16.263-7.295-16.263-16.263s7.295-16.263,16.263-16.263s16.263,7.295,16.263,16.263S96.607,150.866,87.639,150.866z"/> </g> </g> <g> <g> <rect x="360.787" y="78.934" width="15.653" height="111.659"/> </g> </g> <g> <g> <path d="M55.724,182.984v87.921h63.831v-87.921H55.724z M103.902,255.252H71.377v-56.614h32.525V255.252z"/> </g> </g> <g> <g> <path d="M384.346,15.718c-4.505-12.376-18.24-18.781-30.617-14.276l-0.139,0.051L125.879,94.276 c-10.312-10.11-23.934-15.677-38.503-15.677c-14.947,0-28.906,5.846-39.308,16.46c-10.318,10.527-16,24.571-16,39.545v209.386 h21.914v6.261H35.501L7.024,388.987V512h15.653V400.341h39.655v-15.653H29.612l13.809-18.784h88.385l13.514,18.784h-33.943v15.653 h40.698V512h15.653V389.032l-27.9-38.781h-21.146v-6.261h24.001v-63.656h64.7v-92.781l-44.253-43.923h-20.446v-4.641 l218.101-88.867V70.58h15.653V42.842C384.483,36.663,387.994,25.745,384.346,15.718z M103.03,350.251H69.636v-6.261h33.393 V350.251z M127.031,328.336H47.722V134.603c0-22.627,17.418-40.352,39.655-40.352c22.237,0,39.655,17.725,39.655,40.352V328.336z M167.729,170.247l24.001,23.823v21.564h-24.001V170.247z M152.076,159.282v72.005h39.655v33.393h-49.047V159.282H152.076z M364.716,31.622l-0.139,0.051L141.419,122.6c-1.15-5.424-3.078-10.61-5.73-15.419l223.512-91.071 c4.233-1.471,8.896,0.736,10.435,4.961C371.189,25.336,368.982,30.071,364.716,31.622z"/> </g> </g> <g> <g> <rect x="71.725" y="280.337" width="33.393" height="15.653"/> </g> </g> <g> <g> <rect x="71.725" y="303.295" width="33.393" height="15.653"/> </g> </g> <g> <g> <rect x="71.725" y="376.343" width="33.393" height="15.653"/> </g> </g> <g> <g> <rect x="71.725" y="401.388" width="33.393" height="15.653"/> </g> </g> <g> <g> <rect x="71.725" y="423.303" width="33.393" height="15.653"/> </g> </g> <g> <g> <rect x="71.725" y="448.348" width="33.393" height="15.653"/> </g> </g> <g> <g> <rect x="71.725" y="473.393" width="33.393" height="15.653"/> </g> </g> <g> <g> <rect x="71.725" y="496.351" width="33.393" height="15.653"/> </g> </g> <g> <g> <rect x="80.074" y="126.937" width="16.697" height="15.653"/> </g> </g> </g>
</svg>