<!DOCTYPE svg PUBLIC "-//W3C//DTD SVG 1.1//EN" "http://www.w3.org/Graphics/SVG/1.1/DTD/svg11.dtd">
<!-- Uploaded to: SVG Repo, www.svgrepo.com, Transformed by: SVG Repo Mixer Tools -->
<svg height="800px" width="800px" version="1.1" id="Layer_1" xmlns="http://www.w3.org/2000/svg" xmlns:xlink="http://www.w3.org/1999/xlink" viewBox="0 0 512 512" xml:space="preserve" fill="rgb(101 99 123)" stroke="rgb(101 99 123)">
<g id="SVGRepo_bgCarrier" stroke-width="0"/>
<g id="SVGRepo_tracerCarrier" stroke-linecap="round" stroke-linejoin="round"/>
<g id="SVGRepo_iconCarrier"> <g transform="translate(1 1)"> <g> <path style="fill:#e8e8eb;" d="M314.307,417.133h68.267V434.2c0,18.773-15.36,34.133-34.133,34.133s-34.133-15.36-34.133-34.133 V417.133z"/> <path style="fill:#e8e8eb;" d="M393.667,451.267h-16.213c-5.973,10.24-17.067,17.067-29.013,17.067 c-12.8,0-23.893-6.827-29.013-17.067h-16.213c-22.187,0-40.107,16.213-40.107,36.693v14.507h170.667V487.96 C433.773,467.48,415.853,451.267,393.667,451.267"/> </g> <path style="fill:#e8e8eb;" d="M365.507,417.133h-34.133V101.4c0-33.28-26.453-59.733-59.733-59.733S211.907,68.12,211.907,101.4 v59.733h-34.133V101.4c0-52.053,41.813-93.867,93.867-93.867s93.867,41.813,93.867,93.867V417.133z"/> <g> <path style="fill:#e8e8eb;" d="M109.507,485.4H92.44c-9.387,0-17.067-7.68-17.067-17.067V408.6c0-9.387,7.68-17.067,17.067-17.067 h17.067V485.4z"/> <path style="fill:#e8e8eb;" d="M294.68,451.267h19.627V408.6c0-9.387-7.68-17.067-17.067-17.067h-17.067v62.293 C284.44,452.12,289.56,451.267,294.68,451.267"/> </g> <path style="fill:#e8e8eb;" d="M280.173,458.093V280.6c0-38.4-24.747-70.827-59.733-81.067v3.413 c0,13.653-10.24,26.453-23.893,27.307c-14.507,0.853-27.307-11.093-27.307-25.6v-4.267c-34.133,9.387-59.733,41.813-59.733,80.213 v204.8c0,9.387,7.68,17.067,17.067,17.067h136.533V487.96C263.107,475.16,269.933,464.92,280.173,458.093"/> <g> <path style="fill:#e8e8eb;" d="M194.84,229.4L194.84,229.4c-14.507,0-25.6-11.093-25.6-25.6v-42.667h51.2V203.8 C220.44,218.307,209.347,229.4,194.84,229.4"/> <path style="fill:#e8e8eb;" d="M228.973,502.467h-68.267v-18.773c0-8.533,6.827-15.36,15.36-15.36h37.547 c8.533,0,15.36,6.827,15.36,15.36V502.467z"/> <path style="fill:#e8e8eb;" d="M209.347,417.133H179.48c-10.24,0-17.92-9.387-17.067-18.773l4.267-34.133 c0.853-8.533,8.533-15.36,17.067-15.36h21.333c8.533,0,16.213,6.827,17.067,15.36l4.267,34.133 C228.12,407.747,219.587,417.133,209.347,417.133"/> </g> <path d="M109.507,493.933H92.44c-14.507,0-25.6-11.093-25.6-25.6V408.6c0-14.507,11.093-25.6,25.6-25.6h17.067 c5.12,0,8.533,3.413,8.533,8.533V485.4C118.04,490.52,114.627,493.933,109.507,493.933z M92.44,400.067 c-5.12,0-8.533,3.413-8.533,8.533v59.733c0,5.12,3.413,8.533,8.533,8.533h8.533v-76.8H92.44z"/> <path d="M194.84,237.933c-18.773,0-34.133-15.36-34.133-34.133v-42.667c0-5.12,3.413-8.533,8.533-8.533h51.2 c5.12,0,8.533,3.413,8.533,8.533V203.8C228.973,222.573,213.613,237.933,194.84,237.933z M177.773,169.667V203.8 c0,9.387,7.68,17.067,17.067,17.067s17.067-7.68,17.067-17.067v-34.133H177.773z"/> <path d="M228.973,511h-68.267c-5.12,0-8.533-3.413-8.533-8.533v-18.773c0-13.653,11.093-23.893,23.893-23.893h37.547 c13.653,0,23.893,11.093,23.893,23.893v18.773C237.507,507.587,234.093,511,228.973,511z M169.24,493.933h51.2v-10.24 c0-4.267-3.413-6.827-6.827-6.827h-37.547c-4.267,0-6.827,3.413-6.827,6.827C169.24,483.693,169.24,493.933,169.24,493.933z"/> <path d="M209.347,425.667H179.48c-7.68,0-14.507-3.413-18.773-8.533c-5.12-5.12-6.827-12.8-5.973-20.48L159,362.52 c1.707-12.8,12.8-22.187,25.6-22.187h21.333c12.8,0,23.893,9.387,25.6,22.187l4.267,34.133c0.853,7.68-1.707,14.507-5.973,20.48 C225.56,423.107,217.027,425.667,209.347,425.667z M184.6,357.4c-4.267,0-7.68,3.413-8.533,7.68l-4.267,34.133 c0,2.56,0,5.12,1.707,6.827c1.707,1.707,4.267,2.56,6.827,2.56H210.2c2.56,0,5.12-0.853,6.827-2.56 c1.707-1.707,2.56-4.267,1.707-6.827l-4.267-34.133c-0.853-4.267-4.267-7.68-8.533-7.68H184.6z"/> <path d="M194.84,280.6h-42.667c-5.12,0-8.533-3.413-8.533-8.533s3.413-8.533,8.533-8.533h42.667c5.12,0,8.533,3.413,8.533,8.533 S199.96,280.6,194.84,280.6z"/> <path d="M237.507,280.6h-8.533c-5.12,0-8.533-3.413-8.533-8.533s3.413-8.533,8.533-8.533h8.533c5.12,0,8.533,3.413,8.533,8.533 S242.627,280.6,237.507,280.6z"/> <path d="M365.507,425.667h-34.133c-5.12,0-8.533-3.413-8.533-8.533V101.4c0-28.16-23.04-51.2-51.2-51.2 c-28.16,0-51.2,23.04-51.2,51.2v59.733c0,5.12-3.413,8.533-8.533,8.533h-34.133c-5.12,0-8.533-3.413-8.533-8.533V101.4 C169.24,45.08,215.32-1,271.64-1s102.4,46.08,102.4,102.4v315.733C374.04,422.253,370.627,425.667,365.507,425.667z M339.907,408.6 h17.067V101.4c0-46.933-38.4-85.333-85.333-85.333s-85.333,38.4-85.333,85.333v51.2h17.067v-51.2 c0-37.547,30.72-68.267,68.267-68.267s68.267,30.72,68.267,68.267V408.6z"/> <path d="M348.44,476.867c-23.893,0-42.667-18.773-42.667-42.667v-17.067c0-5.12,3.413-8.533,8.533-8.533h68.267 c5.12,0,8.533,3.413,8.533,8.533V434.2C391.107,458.093,372.333,476.867,348.44,476.867z M322.84,425.667v8.533 c0,14.507,11.093,25.6,25.6,25.6c14.507,0,25.6-11.093,25.6-25.6v-8.533H322.84z"/> <path d="M433.773,511H263.107c-5.12,0-8.533-3.413-8.533-8.533V487.96c0-24.747,22.187-45.227,48.64-45.227h16.213 c3.413,0,5.973,1.707,7.68,4.267c4.267,7.68,11.947,12.8,21.333,12.8s17.067-5.12,22.187-12.8c1.707-2.56,4.267-4.267,7.68-4.267 h16.213c26.453,0,48.64,20.48,48.64,45.227v14.507C442.307,507.587,438.893,511,433.773,511z M271.64,493.933h153.6v-5.973 c0-15.36-14.507-28.16-31.573-28.16h-11.093c-7.68,10.24-20.48,17.067-34.133,17.067s-25.6-6.827-34.133-17.067h-11.093 c-17.067,0-31.573,12.8-31.573,28.16V493.933z"/> <path d="M280.173,462.36c-1.707,0-3.413-0.853-5.12-1.707c-2.56-1.707-3.413-4.267-3.413-6.827v-62.293 c0-5.12,3.413-8.533,8.533-8.533h17.067c14.507,0,25.6,11.093,25.6,25.6v42.667c0,5.12-3.413,8.533-8.533,8.533H294.68 c-3.413,0-7.68,0.853-11.947,1.707C281.88,462.36,281.027,462.36,280.173,462.36z M288.707,400.067v42.667c1.707,0,4.267,0,5.973,0 h11.093V408.6c0-5.12-3.413-8.533-8.533-8.533H288.707z"/> <path d="M263.107,511H126.573c-14.507,0-25.6-11.093-25.6-25.6V280.6c0-40.96,26.453-76.8,65.707-89.6 c2.56-0.853,5.12,0,7.68,0.853c2.56,1.707,3.413,4.267,3.413,6.827v5.12c0,5.12,1.707,9.387,5.12,12.8s7.68,5.12,12.8,4.267 c8.533-0.853,16.213-8.533,16.213-18.773v-3.413c0-2.56,1.707-5.12,3.413-6.827c2.56-1.707,5.12-1.707,7.68-0.853 c39.253,12.8,65.707,48.64,65.707,89.6v177.493c0,2.56-1.707,5.973-4.267,6.827c-8.533,5.12-12.8,13.653-12.8,22.187v15.36 C271.64,507.587,268.227,511,263.107,511z M161.56,211.48c-26.453,12.8-43.52,39.253-43.52,69.12v204.8 c0,5.12,3.413,8.533,8.533,8.533h128v-5.973c0-12.8,5.973-25.6,17.067-34.133V280.6c0-29.867-17.067-57.173-43.52-69.12 c-3.413,14.507-16.213,25.6-31.573,26.453c-9.387,0.853-18.773-2.56-25.6-9.387C166.68,224.28,163.267,217.453,161.56,211.48z M280.173,458.093L280.173,458.093L280.173,458.093z"/> </g> </g>
</svg>