<!DOCTYPE svg PUBLIC "-//W3C//DTD SVG 1.1//EN" "http://www.w3.org/Graphics/SVG/1.1/DTD/svg11.dtd">
<!-- Uploaded to: SVG Repo, www.svgrepo.com, Transformed by: SVG Repo Mixer Tools -->
<svg fill="#65637b" height="800px" width="800px" version="1.1" id="Layer_1" xmlns="http://www.w3.org/2000/svg" xmlns:xlink="http://www.w3.org/1999/xlink" viewBox="0 0 512 512" xml:space="preserve" stroke="#65637b">
<g id="SVGRepo_bgCarrier" stroke-width="0"/>
<g id="SVGRepo_tracerCarrier" stroke-linecap="round" stroke-linejoin="round"/>
<g id="SVGRepo_iconCarrier"> <g transform="translate(1 1)"> <g> <g> <path d="M473.556,426.651C494.996,423.507,511,405.437,511,383v-26.483c0-5.297-3.531-8.828-8.828-8.828H475.69v-8.828 c0-9.71-7.945-17.655-17.655-17.655h-35.31V144.655c0-29.131-23.834-52.966-52.966-52.966h-8.828h-35.31h-8.828V74.034 c0-5.297-3.531-8.828-8.828-8.828h-0.576c-4.381-34.712-34.194-61.793-70.045-61.793h-52.966 c-35.851,0-65.664,27.081-70.045,61.793h-0.576c-5.297,0-8.828,3.531-8.828,8.828V91.69h-35.31H51.966 C22.834,91.69-1,115.524-1,144.655v211.862c0,29.131,23.834,52.966,52.966,52.966h247.172c0,21.524,9.769,40.868,25.081,53.848 h-41.854c-3.531,0-6.179,1.766-7.945,4.414c-1.766,2.648-1.766,6.179,0,8.828c12.359,18.538,33.545,30.014,56.497,30.014H443.91 c22.952,0,44.138-11.476,58.262-30.014c1.766-2.648,1.766-6.179,0-8.828c-1.766-2.648-4.414-4.414-7.945-4.414h-43.619 C461.711,453.919,469.896,441.163,473.556,426.651z M472.159,480.103c-7.945,5.297-17.655,8.828-28.248,8.828H330.917 c-9.71,0-20.303-3.531-28.248-8.828h67.09h35.31H472.159z M493.345,365.345V383c0,11.476-7.062,21.186-17.655,24.717v-42.372 H493.345z M405.069,144.655v176.552h-52.966V153.483h8.828c5.297,0,8.828-3.531,8.828-8.828v-35.31 C389.179,109.345,405.069,125.235,405.069,144.655z M352.103,109.345v26.483h-17.655v-26.483H352.103z M175.552,91.69V74.034 c0-4.502-2.556-7.719-6.574-8.586c3.029-5.397,8.804-9.069,15.402-9.069h52.966c6.597,0,12.372,3.672,15.402,9.069 c-4.018,0.867-6.574,4.084-6.574,8.586V91.69H175.552z M263.828,82.862h35.31v8.828h-35.31V82.862z M184.379,21.069h52.966 c26.483,0,47.669,19.421,52.083,44.138h-17.655c-4.414-15.007-17.655-26.483-34.428-26.483h-52.966 c-16.772,0-30.897,11.476-34.428,26.483h-17.655C136.71,40.49,157.897,21.069,184.379,21.069z M122.586,82.862h35.31v8.828 h-35.31V82.862z M96.103,109.345v26.483H78.448v-26.483H96.103z M16.655,356.517V144.655c0-19.421,15.89-35.31,35.31-35.31h8.828 v35.31c0,5.297,3.531,8.828,8.828,8.828h8.828v238.345H51.966C32.545,391.828,16.655,375.938,16.655,356.517z M96.103,391.828 V153.483h8.828c5.297,0,8.828-3.531,8.828-8.828v-35.31h52.966H255h52.966h8.828v35.31c0,5.297,3.531,8.828,8.828,8.828h8.828 v167.724h-17.655c-9.71,0-17.655,7.945-17.655,17.655v52.966H96.103z M316.793,409.483v-8.828v-61.793h97.103h44.138v17.655 v52.966c0,2.648-0.883,5.297-0.883,7.945c0,0.404,0.028,0.808,0.069,1.209c-4.37,24.806-26.142,43.812-52.152,43.812h-35.31 C340.628,462.448,316.793,438.614,316.793,409.483z"/> <path d="M369.759,444.793c5.297,0,8.828-3.531,8.828-8.828c0-5.297-3.531-8.828-8.828-8.828c-9.71,0-17.655-7.945-17.655-17.655 c0-5.297-3.531-8.828-8.828-8.828c-5.297,0-8.828,3.531-8.828,8.828C334.448,428.903,350.338,444.793,369.759,444.793z"/> </g> </g> </g> </g>
</svg>